<mxfile host="app.diagrams.net" modified="2022-03-21T04:05:54.632Z" agent="5.0 (Macintosh; Intel Mac OS X 10_15_7) AppleWebKit/537.36 (KHTML, like Gecko) Chrome/99.0.4844.74 Safari/537.36" etag="O6N8GzaKDU8qvmtIrzxx" version="17.1.3" type="github">
  <diagram name="Page-1" id="c7558073-3199-34d8-9f00-42111426c3f3">
    <mxGraphModel dx="1067" dy="738" grid="1" gridSize="10" guides="1" tooltips="1" connect="1" arrows="1" fold="1" page="1" pageScale="1" pageWidth="826" pageHeight="1169" background="none" math="0" shadow="0">
      <root>
        <mxCell id="0" />
        <mxCell id="1" parent="0" />
        <mxCell id="sp5sqpoZtfZ0vOv9G8rc-117" value="" style="edgeStyle=orthogonalEdgeStyle;rounded=0;orthogonalLoop=1;jettySize=auto;html=1;" parent="1" source="14" target="sp5sqpoZtfZ0vOv9G8rc-99" edge="1">
          <mxGeometry relative="1" as="geometry" />
        </mxCell>
        <mxCell id="14" value="创建用例" style="whiteSpace=wrap;align=center;verticalAlign=middle;fontStyle=1;strokeWidth=3;fillColor=#d5e8d4;strokeColor=#82b366;" parent="1" vertex="1">
          <mxGeometry x="310" y="251" width="80" height="60" as="geometry" />
        </mxCell>
        <mxCell id="sp5sqpoZtfZ0vOv9G8rc-115" style="edgeStyle=orthogonalEdgeStyle;rounded=0;orthogonalLoop=1;jettySize=auto;html=1;exitX=1;exitY=0.5;exitDx=0;exitDy=0;entryX=0;entryY=0.5;entryDx=0;entryDy=0;" parent="1" source="sp5sqpoZtfZ0vOv9G8rc-97" target="14" edge="1">
          <mxGeometry relative="1" as="geometry" />
        </mxCell>
        <mxCell id="sp5sqpoZtfZ0vOv9G8rc-118" style="edgeStyle=orthogonalEdgeStyle;rounded=0;orthogonalLoop=1;jettySize=auto;html=1;exitX=0.5;exitY=1;exitDx=0;exitDy=0;entryX=0.5;entryY=0;entryDx=0;entryDy=0;" parent="1" source="sp5sqpoZtfZ0vOv9G8rc-97" target="sp5sqpoZtfZ0vOv9G8rc-112" edge="1">
          <mxGeometry relative="1" as="geometry" />
        </mxCell>
        <mxCell id="sp5sqpoZtfZ0vOv9G8rc-97" value="创建项目" style="whiteSpace=wrap;align=center;verticalAlign=middle;fontStyle=1;strokeWidth=3;fillColor=#d5e8d4;strokeColor=#82b366;" parent="1" vertex="1">
          <mxGeometry x="175.00000000000006" y="251" width="90" height="60" as="geometry" />
        </mxCell>
        <mxCell id="sp5sqpoZtfZ0vOv9G8rc-104" style="edgeStyle=orthogonalEdgeStyle;rounded=0;orthogonalLoop=1;jettySize=auto;html=1;exitX=1;exitY=0.5;exitDx=0;exitDy=0;entryX=0;entryY=0.5;entryDx=0;entryDy=0;" parent="1" source="sp5sqpoZtfZ0vOv9G8rc-99" target="sp5sqpoZtfZ0vOv9G8rc-101" edge="1">
          <mxGeometry relative="1" as="geometry" />
        </mxCell>
        <mxCell id="sp5sqpoZtfZ0vOv9G8rc-99" value="引导使用Recorder" style="whiteSpace=wrap;align=center;verticalAlign=middle;fontStyle=1;strokeWidth=3;fillColor=#d5e8d4;strokeColor=#82b366;" parent="1" vertex="1">
          <mxGeometry x="440.00000000000006" y="251" width="90" height="60" as="geometry" />
        </mxCell>
        <mxCell id="sp5sqpoZtfZ0vOv9G8rc-106" value="" style="edgeStyle=orthogonalEdgeStyle;rounded=0;orthogonalLoop=1;jettySize=auto;html=1;" parent="1" source="sp5sqpoZtfZ0vOv9G8rc-101" target="sp5sqpoZtfZ0vOv9G8rc-105" edge="1">
          <mxGeometry relative="1" as="geometry" />
        </mxCell>
        <mxCell id="sp5sqpoZtfZ0vOv9G8rc-101" value="快速录制" style="whiteSpace=wrap;align=center;verticalAlign=middle;fontStyle=1;strokeWidth=3;fillColor=#d5e8d4;strokeColor=#82b366;" parent="1" vertex="1">
          <mxGeometry x="570" y="251" width="90" height="60" as="geometry" />
        </mxCell>
        <mxCell id="sp5sqpoZtfZ0vOv9G8rc-108" value="" style="edgeStyle=orthogonalEdgeStyle;rounded=0;orthogonalLoop=1;jettySize=auto;html=1;dashed=1;exitX=1;exitY=0.5;exitDx=0;exitDy=0;" parent="1" source="sp5sqpoZtfZ0vOv9G8rc-105" target="sp5sqpoZtfZ0vOv9G8rc-107" edge="1">
          <mxGeometry relative="1" as="geometry" />
        </mxCell>
        <mxCell id="sp5sqpoZtfZ0vOv9G8rc-123" value="" style="edgeStyle=orthogonalEdgeStyle;rounded=0;orthogonalLoop=1;jettySize=auto;html=1;" parent="1" source="sp5sqpoZtfZ0vOv9G8rc-105" target="sp5sqpoZtfZ0vOv9G8rc-122" edge="1">
          <mxGeometry relative="1" as="geometry" />
        </mxCell>
        <mxCell id="sp5sqpoZtfZ0vOv9G8rc-105" value="导入用例" style="whiteSpace=wrap;html=1;fillColor=#d5e8d4;fontStyle=1;strokeWidth=3;strokeColor=#82b366;" parent="1" vertex="1">
          <mxGeometry x="680" y="251" width="120" height="59" as="geometry" />
        </mxCell>
        <mxCell id="sp5sqpoZtfZ0vOv9G8rc-120" value="" style="edgeStyle=orthogonalEdgeStyle;rounded=0;orthogonalLoop=1;jettySize=auto;html=1;dashed=1;" parent="1" source="sp5sqpoZtfZ0vOv9G8rc-107" target="sp5sqpoZtfZ0vOv9G8rc-119" edge="1">
          <mxGeometry relative="1" as="geometry" />
        </mxCell>
        <mxCell id="sp5sqpoZtfZ0vOv9G8rc-126" style="edgeStyle=orthogonalEdgeStyle;rounded=0;orthogonalLoop=1;jettySize=auto;html=1;exitX=0;exitY=0.5;exitDx=0;exitDy=0;entryX=1;entryY=0.5;entryDx=0;entryDy=0;dashed=1;" parent="1" source="sp5sqpoZtfZ0vOv9G8rc-107" target="sp5sqpoZtfZ0vOv9G8rc-122" edge="1">
          <mxGeometry relative="1" as="geometry" />
        </mxCell>
        <mxCell id="sp5sqpoZtfZ0vOv9G8rc-107" value="二次编辑" style="whiteSpace=wrap;html=1;fillColor=#dae8fc;fontStyle=1;strokeWidth=3;strokeColor=#6c8ebf;" parent="1" vertex="1">
          <mxGeometry x="826" y="380" width="120" height="60" as="geometry" />
        </mxCell>
        <mxCell id="sp5sqpoZtfZ0vOv9G8rc-114" style="edgeStyle=orthogonalEdgeStyle;rounded=0;orthogonalLoop=1;jettySize=auto;html=1;exitX=1;exitY=0.5;exitDx=0;exitDy=0;entryX=0;entryY=0.5;entryDx=0;entryDy=0;" parent="1" source="sp5sqpoZtfZ0vOv9G8rc-109" target="sp5sqpoZtfZ0vOv9G8rc-97" edge="1">
          <mxGeometry relative="1" as="geometry" />
        </mxCell>
        <mxCell id="sp5sqpoZtfZ0vOv9G8rc-109" value="开始" style="ellipse;whiteSpace=wrap;html=1;fillColor=#FFFFCC;fontStyle=1;strokeWidth=3;" parent="1" vertex="1">
          <mxGeometry x="20" y="255.5" width="110" height="51" as="geometry" />
        </mxCell>
        <mxCell id="sp5sqpoZtfZ0vOv9G8rc-135" style="edgeStyle=orthogonalEdgeStyle;rounded=0;orthogonalLoop=1;jettySize=auto;html=1;exitX=1;exitY=0.5;exitDx=0;exitDy=0;entryX=0;entryY=0.5;entryDx=0;entryDy=0;" parent="1" source="sp5sqpoZtfZ0vOv9G8rc-112" target="sp5sqpoZtfZ0vOv9G8rc-133" edge="1">
          <mxGeometry relative="1" as="geometry" />
        </mxCell>
        <mxCell id="sp5sqpoZtfZ0vOv9G8rc-112" value="编辑项目基础信息" style="whiteSpace=wrap;html=1;fillColor=#d5e8d4;strokeColor=#82b366;fontStyle=1;strokeWidth=3;" parent="1" vertex="1">
          <mxGeometry x="160.00000000000006" y="380" width="120" height="60" as="geometry" />
        </mxCell>
        <mxCell id="sp5sqpoZtfZ0vOv9G8rc-130" style="edgeStyle=orthogonalEdgeStyle;rounded=0;orthogonalLoop=1;jettySize=auto;html=1;exitX=1;exitY=0.5;exitDx=0;exitDy=0;entryX=1;entryY=0.5;entryDx=0;entryDy=0;dashed=1;" parent="1" source="sp5sqpoZtfZ0vOv9G8rc-119" target="sp5sqpoZtfZ0vOv9G8rc-127" edge="1">
          <mxGeometry relative="1" as="geometry" />
        </mxCell>
        <mxCell id="sp5sqpoZtfZ0vOv9G8rc-119" value="保存为组件使用" style="whiteSpace=wrap;html=1;fillColor=#dae8fc;strokeColor=#6c8ebf;fontStyle=1;strokeWidth=3;" parent="1" vertex="1">
          <mxGeometry x="826" y="470" width="120" height="60" as="geometry" />
        </mxCell>
        <mxCell id="sp5sqpoZtfZ0vOv9G8rc-132" value="" style="edgeStyle=orthogonalEdgeStyle;rounded=0;orthogonalLoop=1;jettySize=auto;html=1;" parent="1" source="sp5sqpoZtfZ0vOv9G8rc-122" target="sp5sqpoZtfZ0vOv9G8rc-131" edge="1">
          <mxGeometry relative="1" as="geometry" />
        </mxCell>
        <mxCell id="sp5sqpoZtfZ0vOv9G8rc-122" value="测试调试" style="whiteSpace=wrap;html=1;fillColor=#d5e8d4;strokeColor=#82b366;fontStyle=1;strokeWidth=3;" parent="1" vertex="1">
          <mxGeometry x="680" y="380" width="120" height="60" as="geometry" />
        </mxCell>
        <mxCell id="sp5sqpoZtfZ0vOv9G8rc-129" style="edgeStyle=orthogonalEdgeStyle;rounded=0;orthogonalLoop=1;jettySize=auto;html=1;exitX=0.5;exitY=1;exitDx=0;exitDy=0;entryX=0.5;entryY=0;entryDx=0;entryDy=0;dashed=1;" parent="1" source="sp5sqpoZtfZ0vOv9G8rc-127" target="sp5sqpoZtfZ0vOv9G8rc-105" edge="1">
          <mxGeometry relative="1" as="geometry" />
        </mxCell>
        <mxCell id="sp5sqpoZtfZ0vOv9G8rc-127" value="插入组件" style="whiteSpace=wrap;html=1;fillColor=#dae8fc;strokeColor=#6c8ebf;fontStyle=1;strokeWidth=3;" parent="1" vertex="1">
          <mxGeometry x="680" y="160" width="120" height="60" as="geometry" />
        </mxCell>
        <mxCell id="sp5sqpoZtfZ0vOv9G8rc-134" value="" style="edgeStyle=orthogonalEdgeStyle;rounded=0;orthogonalLoop=1;jettySize=auto;html=1;" parent="1" source="sp5sqpoZtfZ0vOv9G8rc-131" target="sp5sqpoZtfZ0vOv9G8rc-133" edge="1">
          <mxGeometry relative="1" as="geometry" />
        </mxCell>
        <mxCell id="XQwzCvLhgWM-_I92AzHI-14" style="edgeStyle=orthogonalEdgeStyle;rounded=0;orthogonalLoop=1;jettySize=auto;html=1;exitX=0.5;exitY=1;exitDx=0;exitDy=0;entryX=0.5;entryY=0;entryDx=0;entryDy=0;" edge="1" parent="1" source="sp5sqpoZtfZ0vOv9G8rc-131" target="XQwzCvLhgWM-_I92AzHI-15">
          <mxGeometry relative="1" as="geometry">
            <mxPoint x="580" y="470" as="targetPoint" />
          </mxGeometry>
        </mxCell>
        <mxCell id="sp5sqpoZtfZ0vOv9G8rc-131" value="保存用例" style="whiteSpace=wrap;html=1;fillColor=#d5e8d4;strokeColor=#82b366;fontStyle=1;strokeWidth=3;" parent="1" vertex="1">
          <mxGeometry x="520" y="380" width="120" height="60" as="geometry" />
        </mxCell>
        <mxCell id="sp5sqpoZtfZ0vOv9G8rc-137" value="" style="edgeStyle=orthogonalEdgeStyle;rounded=0;orthogonalLoop=1;jettySize=auto;html=1;" parent="1" source="sp5sqpoZtfZ0vOv9G8rc-133" target="sp5sqpoZtfZ0vOv9G8rc-136" edge="1">
          <mxGeometry relative="1" as="geometry" />
        </mxCell>
        <mxCell id="sp5sqpoZtfZ0vOv9G8rc-133" value="创建任务" style="whiteSpace=wrap;html=1;fillColor=#d5e8d4;strokeColor=#82b366;fontStyle=1;strokeWidth=3;" parent="1" vertex="1">
          <mxGeometry x="350" y="380" width="120" height="60" as="geometry" />
        </mxCell>
        <mxCell id="XQwzCvLhgWM-_I92AzHI-20" style="edgeStyle=orthogonalEdgeStyle;rounded=0;orthogonalLoop=1;jettySize=auto;html=1;exitX=0.5;exitY=1;exitDx=0;exitDy=0;" edge="1" parent="1" source="sp5sqpoZtfZ0vOv9G8rc-136">
          <mxGeometry relative="1" as="geometry">
            <mxPoint x="500" y="570" as="targetPoint" />
          </mxGeometry>
        </mxCell>
        <mxCell id="sp5sqpoZtfZ0vOv9G8rc-136" value="任务执行" style="whiteSpace=wrap;html=1;fillColor=#d5e8d4;strokeColor=#82b366;fontStyle=1;strokeWidth=3;" parent="1" vertex="1">
          <mxGeometry x="350" y="475" width="120" height="50" as="geometry" />
        </mxCell>
        <mxCell id="sp5sqpoZtfZ0vOv9G8rc-140" value="消息服务" style="shape=parallelogram;perimeter=parallelogramPerimeter;whiteSpace=wrap;html=1;fixedSize=1;fillColor=#fff2cc;strokeColor=#d6b656;" parent="1" vertex="1">
          <mxGeometry x="440" y="570" width="120" height="60" as="geometry" />
        </mxCell>
        <mxCell id="XQwzCvLhgWM-_I92AzHI-18" style="edgeStyle=orthogonalEdgeStyle;rounded=0;orthogonalLoop=1;jettySize=auto;html=1;exitX=0.5;exitY=1;exitDx=0;exitDy=0;" edge="1" parent="1" source="XQwzCvLhgWM-_I92AzHI-15" target="sp5sqpoZtfZ0vOv9G8rc-140">
          <mxGeometry relative="1" as="geometry" />
        </mxCell>
        <mxCell id="XQwzCvLhgWM-_I92AzHI-15" value="puppeteer性能分析" style="whiteSpace=wrap;html=1;fillColor=#d5e8d4;strokeColor=#82b366;fontStyle=1;strokeWidth=3;" vertex="1" parent="1">
          <mxGeometry x="520" y="475" width="120" height="50" as="geometry" />
        </mxCell>
      </root>
    </mxGraphModel>
  </diagram>
</mxfile>
